<?xml version="1.0" encoding="utf-8" standalone="no"?>
<!DOCTYPE svg PUBLIC "-//W3C//DTD SVG 1.1//EN"
  "http://www.w3.org/Graphics/SVG/1.1/DTD/svg11.dtd">
<svg xmlns:xlink="http://www.w3.org/1999/xlink" width="3573.34pt" height="1219.85pt" viewBox="0 0 3573.34 1219.85" xmlns="http://www.w3.org/2000/svg" version="1.1">
 <metadata>
  <rdf:RDF xmlns:dc="http://purl.org/dc/elements/1.1/" xmlns:cc="http://creativecommons.org/ns#" xmlns:rdf="http://www.w3.org/1999/02/22-rdf-syntax-ns#">
   <cc:Work>
    <dc:type rdf:resource="http://purl.org/dc/dcmitype/StillImage"/>
    <dc:date>2025-10-07T16:35:19.551214</dc:date>
    <dc:format>image/svg+xml</dc:format>
    <dc:creator>
     <cc:Agent>
      <dc:title>Matplotlib v3.7.5, https://matplotlib.org/</dc:title>
     </cc:Agent>
    </dc:creator>
   </cc:Work>
  </rdf:RDF>
 </metadata>
 <defs>
  <style type="text/css">*{stroke-linejoin: round; stroke-linecap: butt}</style>
 </defs>
 <g id="figure_1">
  <g id="patch_1">
   <path d="M 0 1219.85 
L 3573.34 1219.85 
L 3573.34 0 
L 0 0 
z
" style="fill: #ffffff"/>
  </g>
  <g id="axes_1">
   <g id="patch_2">
    <path d="M 218.14 1116 
L 3566.14 1116 
L 3566.14 7.2 
L 218.14 7.2 
z
" style="fill: #ffffff"/>
   </g>
   <g id="patch_3">
    <path d="M 218.14 1037.731765 
L 218.14 1037.731765 
L 218.14 933.374118 
L 218.14 933.374118 
z
" clip-path="url(#p9b86c049be)" style="fill: #1f77b4"/>
   </g>
   <g id="patch_4">
    <path d="M 218.14 1018.164706 
L 297.854286 1018.164706 
L 297.854286 952.941176 
L 218.14 952.941176 
z
" clip-path="url(#p9b86c049be)" style="fill: #59a14f; stroke: #000000; stroke-linejoin: miter"/>
   </g>
   <g id="patch_5">
    <path d="M 297.854286 1018.164706 
L 377.568571 1018.164706 
L 377.568571 952.941176 
L 297.854286 952.941176 
z
" clip-path="url(#p9b86c049be)" style="fill: #bab0ac; stroke: #000000; stroke-linejoin: miter"/>
   </g>
   <g id="patch_6">
    <path d="M 457.282857 1018.164706 
L 536.997143 1018.164706 
L 536.997143 952.941176 
L 457.282857 952.941176 
z
" clip-path="url(#p9b86c049be)" style="fill: #edc949; stroke: #000000; stroke-linejoin: miter"/>
   </g>
   <g id="patch_7">
    <path d="M 616.711429 1018.164706 
L 776.14 1018.164706 
L 776.14 952.941176 
L 616.711429 952.941176 
z
" clip-path="url(#p9b86c049be)" style="fill: #bab0ac; stroke: #000000; stroke-linejoin: miter"/>
   </g>
   <g id="patch_8">
    <path d="M 776.14 1018.164706 
L 935.568571 1018.164706 
L 935.568571 952.941176 
L 776.14 952.941176 
z
" clip-path="url(#p9b86c049be)" style="fill: #e15759; stroke: #000000; stroke-linejoin: miter"/>
   </g>
   <g id="patch_9">
    <path d="M 935.568571 1018.164706 
L 1094.997143 1018.164706 
L 1094.997143 952.941176 
L 935.568571 952.941176 
z
" clip-path="url(#p9b86c049be)" style="fill: #b07aa1; stroke: #000000; stroke-linejoin: miter"/>
   </g>
   <g id="patch_10">
    <path d="M 1094.997143 1018.164706 
L 1174.711429 1018.164706 
L 1174.711429 952.941176 
L 1094.997143 952.941176 
z
" clip-path="url(#p9b86c049be)" style="fill: #f28e2c; stroke: #000000; stroke-linejoin: miter"/>
   </g>
   <g id="patch_11">
    <path d="M 1334.14 1018.164706 
L 1413.854286 1018.164706 
L 1413.854286 952.941176 
L 1334.14 952.941176 
z
" clip-path="url(#p9b86c049be)" style="fill: #76b7b2; stroke: #000000; stroke-linejoin: miter"/>
   </g>
   <g id="patch_12">
    <path d="M 1413.854286 1018.164706 
L 1493.568571 1018.164706 
L 1493.568571 952.941176 
L 1413.854286 952.941176 
z
" clip-path="url(#p9b86c049be)" style="fill: #e15759; stroke: #000000; stroke-linejoin: miter"/>
   </g>
   <g id="patch_13">
    <path d="M 1652.997143 1018.164706 
L 2051.568571 1018.164706 
L 2051.568571 952.941176 
L 1652.997143 952.941176 
z
" clip-path="url(#p9b86c049be)" style="fill: #edc949; stroke: #000000; stroke-linejoin: miter"/>
   </g>
   <g id="patch_14">
    <path d="M 2051.568571 1018.164706 
L 2131.282857 1018.164706 
L 2131.282857 952.941176 
L 2051.568571 952.941176 
z
" clip-path="url(#p9b86c049be)" style="fill: #9c755f; stroke: #000000; stroke-linejoin: miter"/>
   </g>
   <g id="patch_15">
    <path d="M 2370.425714 1018.164706 
L 2609.568571 1018.164706 
L 2609.568571 952.941176 
L 2370.425714 952.941176 
z
" clip-path="url(#p9b86c049be)" style="fill: #ffdcb8; stroke: #000000; stroke-linejoin: miter"/>
   </g>
   <g id="patch_16">
    <path d="M 3087.854286 1018.164706 
L 3167.568571 1018.164706 
L 3167.568571 952.941176 
L 3087.854286 952.941176 
z
" clip-path="url(#p9b86c049be)" style="fill: #b07aa1; stroke: #000000; stroke-linejoin: miter"/>
   </g>
   <g id="patch_17">
    <path d="M 3167.568571 1018.164706 
L 3406.711429 1018.164706 
L 3406.711429 952.941176 
L 3167.568571 952.941176 
z
" clip-path="url(#p9b86c049be)" style="fill: #b07aa1; stroke: #000000; stroke-linejoin: miter"/>
   </g>
   <g id="patch_18">
    <path d="M 218.14 907.284706 
L 218.14 907.284706 
L 218.14 802.927059 
L 218.14 802.927059 
z
" clip-path="url(#p9b86c049be)" style="fill: #ff7f0e"/>
   </g>
   <g id="patch_19">
    <path d="M 218.14 887.717647 
L 696.425714 887.717647 
L 696.425714 822.494118 
L 218.14 822.494118 
z
" clip-path="url(#p9b86c049be)" style="fill: #e15759; stroke: #000000; stroke-linejoin: miter"/>
   </g>
   <g id="patch_20">
    <path d="M 696.425714 887.717647 
L 1174.711429 887.717647 
L 1174.711429 822.494118 
L 696.425714 822.494118 
z
" clip-path="url(#p9b86c049be)" style="fill: #76b7b2; stroke: #000000; stroke-linejoin: miter"/>
   </g>
   <g id="patch_21">
    <path d="M 1174.711429 887.717647 
L 1652.997143 887.717647 
L 1652.997143 822.494118 
L 1174.711429 822.494118 
z
" clip-path="url(#p9b86c049be)" style="fill: #edc949; stroke: #000000; stroke-linejoin: miter"/>
   </g>
   <g id="patch_22">
    <path d="M 1652.997143 887.717647 
L 2131.282857 887.717647 
L 2131.282857 822.494118 
L 1652.997143 822.494118 
z
" clip-path="url(#p9b86c049be)" style="fill: #59a14f; stroke: #000000; stroke-linejoin: miter"/>
   </g>
   <g id="patch_23">
    <path d="M 2131.282857 887.717647 
L 2609.568571 887.717647 
L 2609.568571 822.494118 
L 2131.282857 822.494118 
z
" clip-path="url(#p9b86c049be)" style="fill: #9c755f; stroke: #000000; stroke-linejoin: miter"/>
   </g>
   <g id="patch_24">
    <path d="M 2609.568571 887.717647 
L 3087.854286 887.717647 
L 3087.854286 822.494118 
L 2609.568571 822.494118 
z
" clip-path="url(#p9b86c049be)" style="fill: #b07aa1; stroke: #000000; stroke-linejoin: miter"/>
   </g>
   <g id="patch_25">
    <path d="M 218.14 776.837647 
L 218.14 776.837647 
L 218.14 672.48 
L 218.14 672.48 
z
" clip-path="url(#p9b86c049be)" style="fill: #2ca02c"/>
   </g>
   <g id="patch_26">
    <path d="M 218.14 757.270588 
L 536.997143 757.270588 
L 536.997143 692.047059 
L 218.14 692.047059 
z
" clip-path="url(#p9b86c049be)" style="fill: #f28e2c; stroke: #000000; stroke-linejoin: miter"/>
   </g>
   <g id="patch_27">
    <path d="M 696.425714 757.270588 
L 776.14 757.270588 
L 776.14 692.047059 
L 696.425714 692.047059 
z
" clip-path="url(#p9b86c049be)" style="fill: #e15759; stroke: #000000; stroke-linejoin: miter"/>
   </g>
   <g id="patch_28">
    <path d="M 776.14 757.270588 
L 1094.997143 757.270588 
L 1094.997143 692.047059 
L 776.14 692.047059 
z
" clip-path="url(#p9b86c049be)" style="fill: #ffdcb8; stroke: #000000; stroke-linejoin: miter"/>
   </g>
   <g id="patch_29">
    <path d="M 1094.997143 757.270588 
L 1413.854286 757.270588 
L 1413.854286 692.047059 
L 1094.997143 692.047059 
z
" clip-path="url(#p9b86c049be)" style="fill: #bab0ac; stroke: #000000; stroke-linejoin: miter"/>
   </g>
   <g id="patch_30">
    <path d="M 1413.854286 757.270588 
L 1732.711429 757.270588 
L 1732.711429 692.047059 
L 1413.854286 692.047059 
z
" clip-path="url(#p9b86c049be)" style="fill: #b07aa1; stroke: #000000; stroke-linejoin: miter"/>
   </g>
   <g id="patch_31">
    <path d="M 1732.711429 757.270588 
L 1812.425714 757.270588 
L 1812.425714 692.047059 
L 1732.711429 692.047059 
z
" clip-path="url(#p9b86c049be)" style="fill: #f28e2c; stroke: #000000; stroke-linejoin: miter"/>
   </g>
   <g id="patch_32">
    <path d="M 1812.425714 757.270588 
L 2131.282857 757.270588 
L 2131.282857 692.047059 
L 1812.425714 692.047059 
z
" clip-path="url(#p9b86c049be)" style="fill: #76b7b2; stroke: #000000; stroke-linejoin: miter"/>
   </g>
   <g id="patch_33">
    <path d="M 2131.282857 757.270588 
L 2210.997143 757.270588 
L 2210.997143 692.047059 
L 2131.282857 692.047059 
z
" clip-path="url(#p9b86c049be)" style="fill: #59a14f; stroke: #000000; stroke-linejoin: miter"/>
   </g>
   <g id="patch_34">
    <path d="M 2210.997143 757.270588 
L 2529.854286 757.270588 
L 2529.854286 692.047059 
L 2210.997143 692.047059 
z
" clip-path="url(#p9b86c049be)" style="fill: #ff9da7; stroke: #000000; stroke-linejoin: miter"/>
   </g>
   <g id="patch_35">
    <path d="M 2848.711429 757.270588 
L 3167.568571 757.270588 
L 3167.568571 692.047059 
L 2848.711429 692.047059 
z
" clip-path="url(#p9b86c049be)" style="fill: #edc949; stroke: #000000; stroke-linejoin: miter"/>
   </g>
   <g id="patch_36">
    <path d="M 3167.568571 757.270588 
L 3247.282857 757.270588 
L 3247.282857 692.047059 
L 3167.568571 692.047059 
z
" clip-path="url(#p9b86c049be)" style="fill: #ff9da7; stroke: #000000; stroke-linejoin: miter"/>
   </g>
   <g id="patch_37">
    <path d="M 218.14 646.390588 
L 218.14 646.390588 
L 218.14 542.032941 
L 218.14 542.032941 
z
" clip-path="url(#p9b86c049be)" style="fill: #d62728"/>
   </g>
   <g id="patch_38">
    <path d="M 377.568571 626.823529 
L 616.711429 626.823529 
L 616.711429 561.6 
L 377.568571 561.6 
z
" clip-path="url(#p9b86c049be)" style="fill: #bab0ac; stroke: #000000; stroke-linejoin: miter"/>
   </g>
   <g id="patch_39">
    <path d="M 696.425714 626.823529 
L 855.854286 626.823529 
L 855.854286 561.6 
L 696.425714 561.6 
z
" clip-path="url(#p9b86c049be)" style="fill: #ff9da7; stroke: #000000; stroke-linejoin: miter"/>
   </g>
   <g id="patch_40">
    <path d="M 935.568571 626.823529 
L 1413.854286 626.823529 
L 1413.854286 561.6 
L 935.568571 561.6 
z
" clip-path="url(#p9b86c049be)" style="fill: #e15759; stroke: #000000; stroke-linejoin: miter"/>
   </g>
   <g id="patch_41">
    <path d="M 1413.854286 626.823529 
L 1892.14 626.823529 
L 1892.14 561.6 
L 1413.854286 561.6 
z
" clip-path="url(#p9b86c049be)" style="fill: #bab0ac; stroke: #000000; stroke-linejoin: miter"/>
   </g>
   <g id="patch_42">
    <path d="M 1892.14 626.823529 
L 2370.425714 626.823529 
L 2370.425714 561.6 
L 1892.14 561.6 
z
" clip-path="url(#p9b86c049be)" style="fill: #ffdcb8; stroke: #000000; stroke-linejoin: miter"/>
   </g>
   <g id="patch_43">
    <path d="M 2370.425714 626.823529 
L 2848.711429 626.823529 
L 2848.711429 561.6 
L 2370.425714 561.6 
z
" clip-path="url(#p9b86c049be)" style="fill: #edc949; stroke: #000000; stroke-linejoin: miter"/>
   </g>
   <g id="patch_44">
    <path d="M 2848.711429 626.823529 
L 3326.997143 626.823529 
L 3326.997143 561.6 
L 2848.711429 561.6 
z
" clip-path="url(#p9b86c049be)" style="fill: #9c755f; stroke: #000000; stroke-linejoin: miter"/>
   </g>
   <g id="patch_45">
    <path d="M 218.14 515.943529 
L 218.14 515.943529 
L 218.14 411.585882 
L 218.14 411.585882 
z
" clip-path="url(#p9b86c049be)" style="fill: #9467bd"/>
   </g>
   <g id="patch_46">
    <path d="M 218.14 496.376471 
L 457.282857 496.376471 
L 457.282857 431.152941 
L 218.14 431.152941 
z
" clip-path="url(#p9b86c049be)" style="fill: #edc949; stroke: #000000; stroke-linejoin: miter"/>
   </g>
   <g id="patch_47">
    <path d="M 536.997143 496.376471 
L 776.14 496.376471 
L 776.14 431.152941 
L 536.997143 431.152941 
z
" clip-path="url(#p9b86c049be)" style="fill: #f28e2c; stroke: #000000; stroke-linejoin: miter"/>
   </g>
   <g id="patch_48">
    <path d="M 1094.997143 496.376471 
L 1334.14 496.376471 
L 1334.14 431.152941 
L 1094.997143 431.152941 
z
" clip-path="url(#p9b86c049be)" style="fill: #ffdcb8; stroke: #000000; stroke-linejoin: miter"/>
   </g>
   <g id="patch_49">
    <path d="M 2210.997143 496.376471 
L 2450.14 496.376471 
L 2450.14 431.152941 
L 2210.997143 431.152941 
z
" clip-path="url(#p9b86c049be)" style="fill: #59a14f; stroke: #000000; stroke-linejoin: miter"/>
   </g>
   <g id="patch_50">
    <path d="M 2450.14 496.376471 
L 2848.711429 496.376471 
L 2848.711429 431.152941 
L 2450.14 431.152941 
z
" clip-path="url(#p9b86c049be)" style="fill: #76b7b2; stroke: #000000; stroke-linejoin: miter"/>
   </g>
   <g id="patch_51">
    <path d="M 2848.711429 496.376471 
L 2928.425714 496.376471 
L 2928.425714 431.152941 
L 2848.711429 431.152941 
z
" clip-path="url(#p9b86c049be)" style="fill: #ff9da7; stroke: #000000; stroke-linejoin: miter"/>
   </g>
   <g id="patch_52">
    <path d="M 218.14 385.496471 
L 218.14 385.496471 
L 218.14 281.138824 
L 218.14 281.138824 
z
" clip-path="url(#p9b86c049be)" style="fill: #8c564b"/>
   </g>
   <g id="patch_53">
    <path d="M 218.14 365.929412 
L 297.854286 365.929412 
L 297.854286 300.705882 
L 218.14 300.705882 
z
" clip-path="url(#p9b86c049be)" style="fill: #bab0ac; stroke: #000000; stroke-linejoin: miter"/>
   </g>
   <g id="patch_54">
    <path d="M 297.854286 365.929412 
L 457.282857 365.929412 
L 457.282857 300.705882 
L 297.854286 300.705882 
z
" clip-path="url(#p9b86c049be)" style="fill: #ffdcb8; stroke: #000000; stroke-linejoin: miter"/>
   </g>
   <g id="patch_55">
    <path d="M 457.282857 365.929412 
L 616.711429 365.929412 
L 616.711429 300.705882 
L 457.282857 300.705882 
z
" clip-path="url(#p9b86c049be)" style="fill: #b07aa1; stroke: #000000; stroke-linejoin: miter"/>
   </g>
   <g id="patch_56">
    <path d="M 616.711429 365.929412 
L 696.425714 365.929412 
L 696.425714 300.705882 
L 616.711429 300.705882 
z
" clip-path="url(#p9b86c049be)" style="fill: #ff9da7; stroke: #000000; stroke-linejoin: miter"/>
   </g>
   <g id="patch_57">
    <path d="M 776.14 365.929412 
L 935.568571 365.929412 
L 935.568571 300.705882 
L 776.14 300.705882 
z
" clip-path="url(#p9b86c049be)" style="fill: #f28e2c; stroke: #000000; stroke-linejoin: miter"/>
   </g>
   <g id="patch_58">
    <path d="M 935.568571 365.929412 
L 1094.997143 365.929412 
L 1094.997143 300.705882 
L 935.568571 300.705882 
z
" clip-path="url(#p9b86c049be)" style="fill: #9c755f; stroke: #000000; stroke-linejoin: miter"/>
   </g>
   <g id="patch_59">
    <path d="M 1174.711429 365.929412 
L 1334.14 365.929412 
L 1334.14 300.705882 
L 1174.711429 300.705882 
z
" clip-path="url(#p9b86c049be)" style="fill: #76b7b2; stroke: #000000; stroke-linejoin: miter"/>
   </g>
   <g id="patch_60">
    <path d="M 1334.14 365.929412 
L 1812.425714 365.929412 
L 1812.425714 300.705882 
L 1334.14 300.705882 
z
" clip-path="url(#p9b86c049be)" style="fill: #9c755f; stroke: #000000; stroke-linejoin: miter"/>
   </g>
   <g id="patch_61">
    <path d="M 1812.425714 365.929412 
L 1892.14 365.929412 
L 1892.14 300.705882 
L 1812.425714 300.705882 
z
" clip-path="url(#p9b86c049be)" style="fill: #ffdcb8; stroke: #000000; stroke-linejoin: miter"/>
   </g>
   <g id="patch_62">
    <path d="M 1892.14 365.929412 
L 2370.425714 365.929412 
L 2370.425714 300.705882 
L 1892.14 300.705882 
z
" clip-path="url(#p9b86c049be)" style="fill: #f28e2c; stroke: #000000; stroke-linejoin: miter"/>
   </g>
   <g id="patch_63">
    <path d="M 2450.14 365.929412 
L 2609.568571 365.929412 
L 2609.568571 300.705882 
L 2450.14 300.705882 
z
" clip-path="url(#p9b86c049be)" style="fill: #59a14f; stroke: #000000; stroke-linejoin: miter"/>
   </g>
   <g id="matplotlib.axis_1">
    <g id="xtick_1">
     <g id="line2d_1">
      <defs>
       <path id="m3c603bd355" d="M 0 0 
L 0 3.5 
" style="stroke: #000000; stroke-width: 0.8"/>
      </defs>
      <g>
       <use xlink:href="#m3c603bd355" x="218.14" y="1116" style="stroke: #000000; stroke-width: 0.8"/>
      </g>
     </g>
     <g id="text_1">
      <!-- 0 -->
      <g transform="translate(206.14 1156.33) scale(0.48 -0.48)">
       <defs>
        <path id="TimesNewRomanPSMT-30" d="M 231 2094 
Q 231 2819 450 3342 
Q 669 3866 1031 4122 
Q 1313 4325 1613 4325 
Q 2100 4325 2488 3828 
Q 2972 3213 2972 2159 
Q 2972 1422 2759 906 
Q 2547 391 2217 158 
Q 1888 -75 1581 -75 
Q 975 -75 572 641 
Q 231 1244 231 2094 
z
M 844 2016 
Q 844 1141 1059 588 
Q 1238 122 1591 122 
Q 1759 122 1940 273 
Q 2122 425 2216 781 
Q 2359 1319 2359 2297 
Q 2359 3022 2209 3506 
Q 2097 3866 1919 4016 
Q 1791 4119 1609 4119 
Q 1397 4119 1231 3928 
Q 1006 3669 925 3112 
Q 844 2556 844 2016 
z
" transform="scale(0.015625)"/>
       </defs>
       <use xlink:href="#TimesNewRomanPSMT-30"/>
      </g>
     </g>
    </g>
    <g id="xtick_2">
     <g id="line2d_2">
      <g>
       <use xlink:href="#m3c603bd355" x="377.568571" y="1116" style="stroke: #000000; stroke-width: 0.8"/>
      </g>
     </g>
     <g id="text_2">
      <!-- 2 -->
      <g transform="translate(365.568571 1156.33) scale(0.48 -0.48)">
       <defs>
        <path id="TimesNewRomanPSMT-32" d="M 2934 816 
L 2638 0 
L 138 0 
L 138 116 
Q 1241 1122 1691 1759 
Q 2141 2397 2141 2925 
Q 2141 3328 1894 3587 
Q 1647 3847 1303 3847 
Q 991 3847 742 3664 
Q 494 3481 375 3128 
L 259 3128 
Q 338 3706 661 4015 
Q 984 4325 1469 4325 
Q 1984 4325 2329 3994 
Q 2675 3663 2675 3213 
Q 2675 2891 2525 2569 
Q 2294 2063 1775 1497 
Q 997 647 803 472 
L 1909 472 
Q 2247 472 2383 497 
Q 2519 522 2628 598 
Q 2738 675 2819 816 
L 2934 816 
z
" transform="scale(0.015625)"/>
       </defs>
       <use xlink:href="#TimesNewRomanPSMT-32"/>
      </g>
     </g>
    </g>
    <g id="xtick_3">
     <g id="line2d_3">
      <g>
       <use xlink:href="#m3c603bd355" x="536.997143" y="1116" style="stroke: #000000; stroke-width: 0.8"/>
      </g>
     </g>
     <g id="text_3">
      <!-- 4 -->
      <g transform="translate(524.997143 1156.33) scale(0.48 -0.48)">
       <defs>
        <path id="TimesNewRomanPSMT-34" d="M 2978 1563 
L 2978 1119 
L 2409 1119 
L 2409 0 
L 1894 0 
L 1894 1119 
L 100 1119 
L 100 1519 
L 2066 4325 
L 2409 4325 
L 2409 1563 
L 2978 1563 
z
M 1894 1563 
L 1894 3666 
L 406 1563 
L 1894 1563 
z
" transform="scale(0.015625)"/>
       </defs>
       <use xlink:href="#TimesNewRomanPSMT-34"/>
      </g>
     </g>
    </g>
    <g id="xtick_4">
     <g id="line2d_4">
      <g>
       <use xlink:href="#m3c603bd355" x="696.425714" y="1116" style="stroke: #000000; stroke-width: 0.8"/>
      </g>
     </g>
     <g id="text_4">
      <!-- 6 -->
      <g transform="translate(684.425714 1156.33) scale(0.48 -0.48)">
       <defs>
        <path id="TimesNewRomanPSMT-36" d="M 2869 4325 
L 2869 4209 
Q 2456 4169 2195 4045 
Q 1934 3922 1679 3669 
Q 1425 3416 1258 3105 
Q 1091 2794 978 2366 
Q 1428 2675 1881 2675 
Q 2316 2675 2634 2325 
Q 2953 1975 2953 1425 
Q 2953 894 2631 456 
Q 2244 -75 1606 -75 
Q 1172 -75 869 213 
Q 275 772 275 1663 
Q 275 2231 503 2743 
Q 731 3256 1154 3653 
Q 1578 4050 1965 4187 
Q 2353 4325 2688 4325 
L 2869 4325 
z
M 925 2138 
Q 869 1716 869 1456 
Q 869 1156 980 804 
Q 1091 453 1309 247 
Q 1469 100 1697 100 
Q 1969 100 2183 356 
Q 2397 613 2397 1088 
Q 2397 1622 2184 2012 
Q 1972 2403 1581 2403 
Q 1463 2403 1327 2353 
Q 1191 2303 925 2138 
z
" transform="scale(0.015625)"/>
       </defs>
       <use xlink:href="#TimesNewRomanPSMT-36"/>
      </g>
     </g>
    </g>
    <g id="xtick_5">
     <g id="line2d_5">
      <g>
       <use xlink:href="#m3c603bd355" x="855.854286" y="1116" style="stroke: #000000; stroke-width: 0.8"/>
      </g>
     </g>
     <g id="text_5">
      <!-- 8 -->
      <g transform="translate(843.854286 1156.33) scale(0.48 -0.48)">
       <defs>
        <path id="TimesNewRomanPSMT-38" d="M 1228 2134 
Q 725 2547 579 2797 
Q 434 3047 434 3316 
Q 434 3728 753 4026 
Q 1072 4325 1600 4325 
Q 2113 4325 2425 4047 
Q 2738 3769 2738 3413 
Q 2738 3175 2569 2928 
Q 2400 2681 1866 2347 
Q 2416 1922 2594 1678 
Q 2831 1359 2831 1006 
Q 2831 559 2490 242 
Q 2150 -75 1597 -75 
Q 994 -75 656 303 
Q 388 606 388 966 
Q 388 1247 577 1523 
Q 766 1800 1228 2134 
z
M 1719 2469 
Q 2094 2806 2194 3001 
Q 2294 3197 2294 3444 
Q 2294 3772 2109 3958 
Q 1925 4144 1606 4144 
Q 1288 4144 1088 3959 
Q 888 3775 888 3528 
Q 888 3366 970 3203 
Q 1053 3041 1206 2894 
L 1719 2469 
z
M 1375 2016 
Q 1116 1797 991 1539 
Q 866 1281 866 981 
Q 866 578 1086 336 
Q 1306 94 1647 94 
Q 1984 94 2187 284 
Q 2391 475 2391 747 
Q 2391 972 2272 1150 
Q 2050 1481 1375 2016 
z
" transform="scale(0.015625)"/>
       </defs>
       <use xlink:href="#TimesNewRomanPSMT-38"/>
      </g>
     </g>
    </g>
    <g id="xtick_6">
     <g id="line2d_6">
      <g>
       <use xlink:href="#m3c603bd355" x="1015.282857" y="1116" style="stroke: #000000; stroke-width: 0.8"/>
      </g>
     </g>
     <g id="text_6">
      <!-- 10 -->
      <g transform="translate(991.282857 1156.33) scale(0.48 -0.48)">
       <defs>
        <path id="TimesNewRomanPSMT-31" d="M 750 3822 
L 1781 4325 
L 1884 4325 
L 1884 747 
Q 1884 391 1914 303 
Q 1944 216 2037 169 
Q 2131 122 2419 116 
L 2419 0 
L 825 0 
L 825 116 
Q 1125 122 1212 167 
Q 1300 213 1334 289 
Q 1369 366 1369 747 
L 1369 3034 
Q 1369 3497 1338 3628 
Q 1316 3728 1258 3775 
Q 1200 3822 1119 3822 
Q 1003 3822 797 3725 
L 750 3822 
z
" transform="scale(0.015625)"/>
       </defs>
       <use xlink:href="#TimesNewRomanPSMT-31"/>
       <use xlink:href="#TimesNewRomanPSMT-30" x="50"/>
      </g>
     </g>
    </g>
    <g id="xtick_7">
     <g id="line2d_7">
      <g>
       <use xlink:href="#m3c603bd355" x="1174.711429" y="1116" style="stroke: #000000; stroke-width: 0.8"/>
      </g>
     </g>
     <g id="text_7">
      <!-- 12 -->
      <g transform="translate(1150.711429 1156.33) scale(0.48 -0.48)">
       <use xlink:href="#TimesNewRomanPSMT-31"/>
       <use xlink:href="#TimesNewRomanPSMT-32" x="50"/>
      </g>
     </g>
    </g>
    <g id="xtick_8">
     <g id="line2d_8">
      <g>
       <use xlink:href="#m3c603bd355" x="1334.14" y="1116" style="stroke: #000000; stroke-width: 0.8"/>
      </g>
     </g>
     <g id="text_8">
      <!-- 14 -->
      <g transform="translate(1310.14 1156.33) scale(0.48 -0.48)">
       <use xlink:href="#TimesNewRomanPSMT-31"/>
       <use xlink:href="#TimesNewRomanPSMT-34" x="50"/>
      </g>
     </g>
    </g>
    <g id="xtick_9">
     <g id="line2d_9">
      <g>
       <use xlink:href="#m3c603bd355" x="1493.568571" y="1116" style="stroke: #000000; stroke-width: 0.8"/>
      </g>
     </g>
     <g id="text_9">
      <!-- 16 -->
      <g transform="translate(1469.568571 1156.33) scale(0.48 -0.48)">
       <use xlink:href="#TimesNewRomanPSMT-31"/>
       <use xlink:href="#TimesNewRomanPSMT-36" x="50"/>
      </g>
     </g>
    </g>
    <g id="xtick_10">
     <g id="line2d_10">
      <g>
       <use xlink:href="#m3c603bd355" x="1652.997143" y="1116" style="stroke: #000000; stroke-width: 0.8"/>
      </g>
     </g>
     <g id="text_10">
      <!-- 18 -->
      <g transform="translate(1628.997143 1156.33) scale(0.48 -0.48)">
       <use xlink:href="#TimesNewRomanPSMT-31"/>
       <use xlink:href="#TimesNewRomanPSMT-38" x="50"/>
      </g>
     </g>
    </g>
    <g id="xtick_11">
     <g id="line2d_11">
      <g>
       <use xlink:href="#m3c603bd355" x="1812.425714" y="1116" style="stroke: #000000; stroke-width: 0.8"/>
      </g>
     </g>
     <g id="text_11">
      <!-- 20 -->
      <g transform="translate(1788.425714 1156.33) scale(0.48 -0.48)">
       <use xlink:href="#TimesNewRomanPSMT-32"/>
       <use xlink:href="#TimesNewRomanPSMT-30" x="50"/>
      </g>
     </g>
    </g>
    <g id="xtick_12">
     <g id="line2d_12">
      <g>
       <use xlink:href="#m3c603bd355" x="1971.854286" y="1116" style="stroke: #000000; stroke-width: 0.8"/>
      </g>
     </g>
     <g id="text_12">
      <!-- 22 -->
      <g transform="translate(1947.854286 1156.33) scale(0.48 -0.48)">
       <use xlink:href="#TimesNewRomanPSMT-32"/>
       <use xlink:href="#TimesNewRomanPSMT-32" x="50"/>
      </g>
     </g>
    </g>
    <g id="xtick_13">
     <g id="line2d_13">
      <g>
       <use xlink:href="#m3c603bd355" x="2131.282857" y="1116" style="stroke: #000000; stroke-width: 0.8"/>
      </g>
     </g>
     <g id="text_13">
      <!-- 24 -->
      <g transform="translate(2107.282857 1156.33) scale(0.48 -0.48)">
       <use xlink:href="#TimesNewRomanPSMT-32"/>
       <use xlink:href="#TimesNewRomanPSMT-34" x="50"/>
      </g>
     </g>
    </g>
    <g id="xtick_14">
     <g id="line2d_14">
      <g>
       <use xlink:href="#m3c603bd355" x="2290.711429" y="1116" style="stroke: #000000; stroke-width: 0.8"/>
      </g>
     </g>
     <g id="text_14">
      <!-- 26 -->
      <g transform="translate(2266.711429 1156.33) scale(0.48 -0.48)">
       <use xlink:href="#TimesNewRomanPSMT-32"/>
       <use xlink:href="#TimesNewRomanPSMT-36" x="50"/>
      </g>
     </g>
    </g>
    <g id="xtick_15">
     <g id="line2d_15">
      <g>
       <use xlink:href="#m3c603bd355" x="2450.14" y="1116" style="stroke: #000000; stroke-width: 0.8"/>
      </g>
     </g>
     <g id="text_15">
      <!-- 28 -->
      <g transform="translate(2426.14 1156.33) scale(0.48 -0.48)">
       <use xlink:href="#TimesNewRomanPSMT-32"/>
       <use xlink:href="#TimesNewRomanPSMT-38" x="50"/>
      </g>
     </g>
    </g>
    <g id="xtick_16">
     <g id="line2d_16">
      <g>
       <use xlink:href="#m3c603bd355" x="2609.568571" y="1116" style="stroke: #000000; stroke-width: 0.8"/>
      </g>
     </g>
     <g id="text_16">
      <!-- 30 -->
      <g transform="translate(2585.568571 1156.33) scale(0.48 -0.48)">
       <defs>
        <path id="TimesNewRomanPSMT-33" d="M 325 3431 
Q 506 3859 782 4092 
Q 1059 4325 1472 4325 
Q 1981 4325 2253 3994 
Q 2459 3747 2459 3466 
Q 2459 3003 1878 2509 
Q 2269 2356 2469 2072 
Q 2669 1788 2669 1403 
Q 2669 853 2319 450 
Q 1863 -75 997 -75 
Q 569 -75 414 31 
Q 259 138 259 259 
Q 259 350 332 419 
Q 406 488 509 488 
Q 588 488 669 463 
Q 722 447 909 348 
Q 1097 250 1169 231 
Q 1284 197 1416 197 
Q 1734 197 1970 444 
Q 2206 691 2206 1028 
Q 2206 1275 2097 1509 
Q 2016 1684 1919 1775 
Q 1784 1900 1550 2001 
Q 1316 2103 1072 2103 
L 972 2103 
L 972 2197 
Q 1219 2228 1467 2375 
Q 1716 2522 1828 2728 
Q 1941 2934 1941 3181 
Q 1941 3503 1739 3701 
Q 1538 3900 1238 3900 
Q 753 3900 428 3381 
L 325 3431 
z
" transform="scale(0.015625)"/>
       </defs>
       <use xlink:href="#TimesNewRomanPSMT-33"/>
       <use xlink:href="#TimesNewRomanPSMT-30" x="50"/>
      </g>
     </g>
    </g>
    <g id="xtick_17">
     <g id="line2d_17">
      <g>
       <use xlink:href="#m3c603bd355" x="2768.997143" y="1116" style="stroke: #000000; stroke-width: 0.8"/>
      </g>
     </g>
     <g id="text_17">
      <!-- 32 -->
      <g transform="translate(2744.997143 1156.33) scale(0.48 -0.48)">
       <use xlink:href="#TimesNewRomanPSMT-33"/>
       <use xlink:href="#TimesNewRomanPSMT-32" x="50"/>
      </g>
     </g>
    </g>
    <g id="xtick_18">
     <g id="line2d_18">
      <g>
       <use xlink:href="#m3c603bd355" x="2928.425714" y="1116" style="stroke: #000000; stroke-width: 0.8"/>
      </g>
     </g>
     <g id="text_18">
      <!-- 34 -->
      <g transform="translate(2904.425714 1156.33) scale(0.48 -0.48)">
       <use xlink:href="#TimesNewRomanPSMT-33"/>
       <use xlink:href="#TimesNewRomanPSMT-34" x="50"/>
      </g>
     </g>
    </g>
    <g id="xtick_19">
     <g id="line2d_19">
      <g>
       <use xlink:href="#m3c603bd355" x="3087.854286" y="1116" style="stroke: #000000; stroke-width: 0.8"/>
      </g>
     </g>
     <g id="text_19">
      <!-- 36 -->
      <g transform="translate(3063.854286 1156.33) scale(0.48 -0.48)">
       <use xlink:href="#TimesNewRomanPSMT-33"/>
       <use xlink:href="#TimesNewRomanPSMT-36" x="50"/>
      </g>
     </g>
    </g>
    <g id="xtick_20">
     <g id="line2d_20">
      <g>
       <use xlink:href="#m3c603bd355" x="3247.282857" y="1116" style="stroke: #000000; stroke-width: 0.8"/>
      </g>
     </g>
     <g id="text_20">
      <!-- 38 -->
      <g transform="translate(3223.282857 1156.33) scale(0.48 -0.48)">
       <use xlink:href="#TimesNewRomanPSMT-33"/>
       <use xlink:href="#TimesNewRomanPSMT-38" x="50"/>
      </g>
     </g>
    </g>
    <g id="xtick_21">
     <g id="line2d_21">
      <g>
       <use xlink:href="#m3c603bd355" x="3406.711429" y="1116" style="stroke: #000000; stroke-width: 0.8"/>
      </g>
     </g>
     <g id="text_21">
      <!-- 40 -->
      <g transform="translate(3382.711429 1156.33) scale(0.48 -0.48)">
       <use xlink:href="#TimesNewRomanPSMT-34"/>
       <use xlink:href="#TimesNewRomanPSMT-30" x="50"/>
      </g>
     </g>
    </g>
    <g id="xtick_22">
     <g id="line2d_22">
      <g>
       <use xlink:href="#m3c603bd355" x="536.997143" y="1116" style="stroke: #000000; stroke-width: 0.8"/>
      </g>
     </g>
     <g id="text_22">
      <!-- 4 -->
      <g transform="translate(524.997143 1156.33) scale(0.48 -0.48)">
       <use xlink:href="#TimesNewRomanPSMT-34"/>
      </g>
     </g>
    </g>
    <g id="xtick_23">
     <g id="line2d_23">
      <g>
       <use xlink:href="#m3c603bd355" x="616.711429" y="1116" style="stroke: #000000; stroke-width: 0.8"/>
      </g>
     </g>
     <g id="text_23">
      <!-- 5 -->
      <g transform="translate(604.711429 1156.33) scale(0.48 -0.48)">
       <defs>
        <path id="TimesNewRomanPSMT-35" d="M 2778 4238 
L 2534 3706 
L 1259 3706 
L 981 3138 
Q 1809 3016 2294 2522 
Q 2709 2097 2709 1522 
Q 2709 1188 2573 903 
Q 2438 619 2231 419 
Q 2025 219 1772 97 
Q 1413 -75 1034 -75 
Q 653 -75 479 54 
Q 306 184 306 341 
Q 306 428 378 495 
Q 450 563 559 563 
Q 641 563 702 538 
Q 763 513 909 409 
Q 1144 247 1384 247 
Q 1750 247 2026 523 
Q 2303 800 2303 1197 
Q 2303 1581 2056 1914 
Q 1809 2247 1375 2428 
Q 1034 2569 447 2591 
L 1259 4238 
L 2778 4238 
z
" transform="scale(0.015625)"/>
       </defs>
       <use xlink:href="#TimesNewRomanPSMT-35"/>
      </g>
     </g>
    </g>
    <g id="xtick_24">
     <g id="line2d_24">
      <g>
       <use xlink:href="#m3c603bd355" x="616.711429" y="1116" style="stroke: #000000; stroke-width: 0.8"/>
      </g>
     </g>
     <g id="text_24">
      <!-- 5 -->
      <g transform="translate(604.711429 1156.33) scale(0.48 -0.48)">
       <use xlink:href="#TimesNewRomanPSMT-35"/>
      </g>
     </g>
    </g>
    <g id="xtick_25">
     <g id="line2d_25">
      <g>
       <use xlink:href="#m3c603bd355" x="696.425714" y="1116" style="stroke: #000000; stroke-width: 0.8"/>
      </g>
     </g>
     <g id="text_25">
      <!-- 6 -->
      <g transform="translate(684.425714 1156.33) scale(0.48 -0.48)">
       <use xlink:href="#TimesNewRomanPSMT-36"/>
      </g>
     </g>
    </g>
    <g id="xtick_26">
     <g id="line2d_26">
      <g>
       <use xlink:href="#m3c603bd355" x="696.425714" y="1116" style="stroke: #000000; stroke-width: 0.8"/>
      </g>
     </g>
     <g id="text_26">
      <!-- 6 -->
      <g transform="translate(684.425714 1156.33) scale(0.48 -0.48)">
       <use xlink:href="#TimesNewRomanPSMT-36"/>
      </g>
     </g>
    </g>
    <g id="xtick_27">
     <g id="line2d_27">
      <g>
       <use xlink:href="#m3c603bd355" x="776.14" y="1116" style="stroke: #000000; stroke-width: 0.8"/>
      </g>
     </g>
     <g id="text_27">
      <!-- 7 -->
      <g transform="translate(764.14 1156.33) scale(0.48 -0.48)">
       <defs>
        <path id="TimesNewRomanPSMT-37" d="M 644 4238 
L 2916 4238 
L 2916 4119 
L 1503 -88 
L 1153 -88 
L 2419 3728 
L 1253 3728 
Q 900 3728 750 3644 
Q 488 3500 328 3200 
L 238 3234 
L 644 4238 
z
" transform="scale(0.015625)"/>
       </defs>
       <use xlink:href="#TimesNewRomanPSMT-37"/>
      </g>
     </g>
    </g>
    <g id="xtick_28">
     <g id="line2d_28">
      <g>
       <use xlink:href="#m3c603bd355" x="1094.997143" y="1116" style="stroke: #000000; stroke-width: 0.8"/>
      </g>
     </g>
     <g id="text_28">
      <!-- 11 -->
      <g transform="translate(1071.897143 1156.33) scale(0.48 -0.48)">
       <use xlink:href="#TimesNewRomanPSMT-31"/>
       <use xlink:href="#TimesNewRomanPSMT-31" x="46.25"/>
      </g>
     </g>
    </g>
    <g id="xtick_29">
     <g id="line2d_29">
      <g>
       <use xlink:href="#m3c603bd355" x="1174.711429" y="1116" style="stroke: #000000; stroke-width: 0.8"/>
      </g>
     </g>
     <g id="text_29">
      <!-- 12 -->
      <g transform="translate(1150.711429 1156.33) scale(0.48 -0.48)">
       <use xlink:href="#TimesNewRomanPSMT-31"/>
       <use xlink:href="#TimesNewRomanPSMT-32" x="50"/>
      </g>
     </g>
    </g>
    <g id="xtick_30">
     <g id="line2d_30">
      <g>
       <use xlink:href="#m3c603bd355" x="2131.282857" y="1116" style="stroke: #000000; stroke-width: 0.8"/>
      </g>
     </g>
     <g id="text_30">
      <!-- 24 -->
      <g transform="translate(2107.282857 1156.33) scale(0.48 -0.48)">
       <use xlink:href="#TimesNewRomanPSMT-32"/>
       <use xlink:href="#TimesNewRomanPSMT-34" x="50"/>
      </g>
     </g>
    </g>
    <g id="xtick_31">
     <g id="line2d_31">
      <g>
       <use xlink:href="#m3c603bd355" x="2210.997143" y="1116" style="stroke: #000000; stroke-width: 0.8"/>
      </g>
     </g>
     <g id="text_31">
      <!-- 25 -->
      <g transform="translate(2186.997143 1156.33) scale(0.48 -0.48)">
       <use xlink:href="#TimesNewRomanPSMT-32"/>
       <use xlink:href="#TimesNewRomanPSMT-35" x="50"/>
      </g>
     </g>
    </g>
    <g id="xtick_32">
     <g id="line2d_32">
      <g>
       <use xlink:href="#m3c603bd355" x="2210.997143" y="1116" style="stroke: #000000; stroke-width: 0.8"/>
      </g>
     </g>
     <g id="text_32">
      <!-- 25 -->
      <g transform="translate(2186.997143 1156.33) scale(0.48 -0.48)">
       <use xlink:href="#TimesNewRomanPSMT-32"/>
       <use xlink:href="#TimesNewRomanPSMT-35" x="50"/>
      </g>
     </g>
    </g>
    <g id="xtick_33">
     <g id="line2d_33">
      <g>
       <use xlink:href="#m3c603bd355" x="2370.425714" y="1116" style="stroke: #000000; stroke-width: 0.8"/>
      </g>
     </g>
     <g id="text_33">
      <!-- 27 -->
      <g transform="translate(2346.425714 1156.33) scale(0.48 -0.48)">
       <use xlink:href="#TimesNewRomanPSMT-32"/>
       <use xlink:href="#TimesNewRomanPSMT-37" x="50"/>
      </g>
     </g>
    </g>
    <g id="xtick_34">
     <g id="line2d_34">
      <g>
       <use xlink:href="#m3c603bd355" x="2609.568571" y="1116" style="stroke: #000000; stroke-width: 0.8"/>
      </g>
     </g>
     <g id="text_34">
      <!-- 30 -->
      <g transform="translate(2585.568571 1156.33) scale(0.48 -0.48)">
       <use xlink:href="#TimesNewRomanPSMT-33"/>
       <use xlink:href="#TimesNewRomanPSMT-30" x="50"/>
      </g>
     </g>
    </g>
    <g id="xtick_35">
     <g id="line2d_35">
      <g>
       <use xlink:href="#m3c603bd355" x="2848.711429" y="1116" style="stroke: #000000; stroke-width: 0.8"/>
      </g>
     </g>
     <g id="text_35">
      <!-- 33 -->
      <g transform="translate(2824.711429 1156.33) scale(0.48 -0.48)">
       <use xlink:href="#TimesNewRomanPSMT-33"/>
       <use xlink:href="#TimesNewRomanPSMT-33" x="50"/>
      </g>
     </g>
    </g>
    <g id="xtick_36">
     <g id="line2d_36">
      <g>
       <use xlink:href="#m3c603bd355" x="3406.711429" y="1116" style="stroke: #000000; stroke-width: 0.8"/>
      </g>
     </g>
     <g id="text_36">
      <!-- 40 -->
      <g transform="translate(3382.711429 1156.33) scale(0.48 -0.48)">
       <use xlink:href="#TimesNewRomanPSMT-34"/>
       <use xlink:href="#TimesNewRomanPSMT-30" x="50"/>
      </g>
     </g>
    </g>
    <g id="text_37">
     <!-- Time -->
     <g transform="translate(1839.23875 1202.3825) scale(0.48 -0.48)">
      <defs>
       <path id="TimesNewRomanPS-BoldMT-54" d="M 4038 4238 
L 4038 3091 
L 3925 3091 
Q 3825 3488 3703 3661 
Q 3581 3834 3369 3938 
Q 3250 3994 2953 3994 
L 2638 3994 
L 2638 725 
Q 2638 400 2673 319 
Q 2709 238 2814 177 
Q 2919 116 3100 116 
L 3241 116 
L 3241 0 
L 1022 0 
L 1022 116 
L 1163 116 
Q 1347 116 1459 181 
Q 1541 225 1588 331 
Q 1622 406 1622 725 
L 1622 3994 
L 1316 3994 
Q 888 3994 694 3813 
Q 422 3559 350 3091 
L 231 3091 
L 231 4238 
L 4038 4238 
z
" transform="scale(0.015625)"/>
       <path id="TimesNewRomanPS-BoldMT-69" d="M 919 4338 
Q 1122 4338 1262 4195 
Q 1403 4053 1403 3853 
Q 1403 3653 1261 3512 
Q 1119 3372 919 3372 
Q 719 3372 578 3512 
Q 438 3653 438 3853 
Q 438 4053 578 4195 
Q 719 4338 919 4338 
z
M 1356 2922 
L 1356 606 
Q 1356 297 1428 211 
Q 1500 125 1709 113 
L 1709 0 
L 131 0 
L 131 113 
Q 325 119 419 225 
Q 481 297 481 606 
L 481 2313 
Q 481 2622 409 2708 
Q 338 2794 131 2806 
L 131 2922 
L 1356 2922 
z
" transform="scale(0.015625)"/>
       <path id="TimesNewRomanPS-BoldMT-6d" d="M 1428 2922 
L 1428 2538 
Q 1669 2800 1873 2904 
Q 2078 3009 2322 3009 
Q 2603 3009 2793 2878 
Q 2984 2747 3088 2478 
Q 3338 2759 3567 2884 
Q 3797 3009 4047 3009 
Q 4350 3009 4529 2870 
Q 4709 2731 4779 2517 
Q 4850 2303 4850 1834 
L 4850 638 
Q 4850 300 4911 219 
Q 4972 138 5166 113 
L 5166 0 
L 3656 0 
L 3656 113 
Q 3834 128 3919 250 
Q 3975 334 3975 638 
L 3975 1894 
Q 3975 2284 3944 2390 
Q 3913 2497 3845 2548 
Q 3778 2600 3688 2600 
Q 3553 2600 3415 2501 
Q 3278 2403 3138 2206 
L 3138 638 
Q 3138 322 3191 241 
Q 3263 125 3466 113 
L 3466 0 
L 1953 0 
L 1953 113 
Q 2075 119 2145 173 
Q 2216 228 2239 304 
Q 2263 381 2263 638 
L 2263 1894 
Q 2263 2291 2231 2391 
Q 2200 2491 2126 2547 
Q 2053 2603 1969 2603 
Q 1844 2603 1741 2538 
Q 1594 2441 1428 2206 
L 1428 638 
Q 1428 328 1489 229 
Q 1550 131 1744 113 
L 1744 0 
L 238 0 
L 238 113 
Q 422 131 500 231 
Q 553 300 553 638 
L 553 2288 
Q 553 2619 492 2700 
Q 431 2781 238 2806 
L 238 2922 
L 1428 2922 
z
" transform="scale(0.015625)"/>
       <path id="TimesNewRomanPS-BoldMT-65" d="M 2691 1566 
L 1088 1566 
Q 1116 984 1397 647 
Q 1613 388 1916 388 
Q 2103 388 2256 492 
Q 2409 597 2584 869 
L 2691 800 
Q 2453 316 2165 114 
Q 1878 -88 1500 -88 
Q 850 -88 516 413 
Q 247 816 247 1413 
Q 247 2144 642 2576 
Q 1038 3009 1569 3009 
Q 2013 3009 2339 2645 
Q 2666 2281 2691 1566 
z
M 1922 1775 
Q 1922 2278 1867 2465 
Q 1813 2653 1697 2750 
Q 1631 2806 1522 2806 
Q 1359 2806 1256 2647 
Q 1072 2369 1072 1884 
L 1072 1775 
L 1922 1775 
z
" transform="scale(0.015625)"/>
      </defs>
      <use xlink:href="#TimesNewRomanPS-BoldMT-54"/>
      <use xlink:href="#TimesNewRomanPS-BoldMT-69" x="64.949219"/>
      <use xlink:href="#TimesNewRomanPS-BoldMT-6d" x="92.732422"/>
      <use xlink:href="#TimesNewRomanPS-BoldMT-65" x="176.033203"/>
     </g>
    </g>
   </g>
   <g id="matplotlib.axis_2">
    <g id="ytick_1">
     <g id="line2d_37">
      <defs>
       <path id="m11fb517dfc" d="M 0 0 
L -3.5 0 
" style="stroke: #000000; stroke-width: 0.8"/>
      </defs>
      <g>
       <use xlink:href="#m11fb517dfc" x="218.14" y="985.552941" style="stroke: #000000; stroke-width: 0.8"/>
      </g>
     </g>
     <g id="text_38">
      <!-- Machine 1 -->
      <g transform="translate(7.2 1002.217941) scale(0.48 -0.48)">
       <defs>
        <path id="TimesNewRomanPSMT-4d" d="M 2619 0 
L 981 3566 
L 981 734 
Q 981 344 1066 247 
Q 1181 116 1431 116 
L 1581 116 
L 1581 0 
L 106 0 
L 106 116 
L 256 116 
Q 525 116 638 278 
Q 706 378 706 734 
L 706 3503 
Q 706 3784 644 3909 
Q 600 4000 483 4061 
Q 366 4122 106 4122 
L 106 4238 
L 1306 4238 
L 2844 922 
L 4356 4238 
L 5556 4238 
L 5556 4122 
L 5409 4122 
Q 5138 4122 5025 3959 
Q 4956 3859 4956 3503 
L 4956 734 
Q 4956 344 5044 247 
Q 5159 116 5409 116 
L 5556 116 
L 5556 0 
L 3756 0 
L 3756 116 
L 3906 116 
Q 4178 116 4288 278 
Q 4356 378 4356 734 
L 4356 3566 
L 2722 0 
L 2619 0 
z
" transform="scale(0.015625)"/>
        <path id="TimesNewRomanPSMT-61" d="M 1822 413 
Q 1381 72 1269 19 
Q 1100 -59 909 -59 
Q 613 -59 420 144 
Q 228 347 228 678 
Q 228 888 322 1041 
Q 450 1253 767 1440 
Q 1084 1628 1822 1897 
L 1822 2009 
Q 1822 2438 1686 2597 
Q 1550 2756 1291 2756 
Q 1094 2756 978 2650 
Q 859 2544 859 2406 
L 866 2225 
Q 866 2081 792 2003 
Q 719 1925 600 1925 
Q 484 1925 411 2006 
Q 338 2088 338 2228 
Q 338 2497 613 2722 
Q 888 2947 1384 2947 
Q 1766 2947 2009 2819 
Q 2194 2722 2281 2516 
Q 2338 2381 2338 1966 
L 2338 994 
Q 2338 584 2353 492 
Q 2369 400 2405 369 
Q 2441 338 2488 338 
Q 2538 338 2575 359 
Q 2641 400 2828 588 
L 2828 413 
Q 2478 -56 2159 -56 
Q 2006 -56 1915 50 
Q 1825 156 1822 413 
z
M 1822 616 
L 1822 1706 
Q 1350 1519 1213 1441 
Q 966 1303 859 1153 
Q 753 1003 753 825 
Q 753 600 887 451 
Q 1022 303 1197 303 
Q 1434 303 1822 616 
z
" transform="scale(0.015625)"/>
        <path id="TimesNewRomanPSMT-63" d="M 2631 1088 
Q 2516 522 2178 217 
Q 1841 -88 1431 -88 
Q 944 -88 581 321 
Q 219 731 219 1428 
Q 219 2103 620 2525 
Q 1022 2947 1584 2947 
Q 2006 2947 2278 2723 
Q 2550 2500 2550 2259 
Q 2550 2141 2473 2067 
Q 2397 1994 2259 1994 
Q 2075 1994 1981 2113 
Q 1928 2178 1911 2362 
Q 1894 2547 1784 2644 
Q 1675 2738 1481 2738 
Q 1169 2738 978 2506 
Q 725 2200 725 1697 
Q 725 1184 976 792 
Q 1228 400 1656 400 
Q 1963 400 2206 609 
Q 2378 753 2541 1131 
L 2631 1088 
z
" transform="scale(0.015625)"/>
        <path id="TimesNewRomanPSMT-68" d="M 1041 4444 
L 1041 2350 
Q 1388 2731 1591 2839 
Q 1794 2947 1997 2947 
Q 2241 2947 2416 2812 
Q 2591 2678 2675 2391 
Q 2734 2191 2734 1659 
L 2734 647 
Q 2734 375 2778 275 
Q 2809 200 2884 156 
Q 2959 113 3159 113 
L 3159 0 
L 1753 0 
L 1753 113 
L 1819 113 
Q 2019 113 2097 173 
Q 2175 234 2206 353 
Q 2216 403 2216 647 
L 2216 1659 
Q 2216 2128 2167 2275 
Q 2119 2422 2012 2495 
Q 1906 2569 1756 2569 
Q 1603 2569 1437 2487 
Q 1272 2406 1041 2159 
L 1041 647 
Q 1041 353 1073 281 
Q 1106 209 1195 161 
Q 1284 113 1503 113 
L 1503 0 
L 84 0 
L 84 113 
Q 275 113 384 172 
Q 447 203 484 290 
Q 522 378 522 647 
L 522 3238 
Q 522 3728 498 3840 
Q 475 3953 426 3993 
Q 378 4034 297 4034 
Q 231 4034 84 3984 
L 41 4094 
L 897 4444 
L 1041 4444 
z
" transform="scale(0.015625)"/>
        <path id="TimesNewRomanPSMT-69" d="M 928 4444 
Q 1059 4444 1151 4351 
Q 1244 4259 1244 4128 
Q 1244 3997 1151 3903 
Q 1059 3809 928 3809 
Q 797 3809 703 3903 
Q 609 3997 609 4128 
Q 609 4259 701 4351 
Q 794 4444 928 4444 
z
M 1188 2947 
L 1188 647 
Q 1188 378 1227 289 
Q 1266 200 1342 156 
Q 1419 113 1622 113 
L 1622 0 
L 231 0 
L 231 113 
Q 441 113 512 153 
Q 584 194 626 287 
Q 669 381 669 647 
L 669 1750 
Q 669 2216 641 2353 
Q 619 2453 572 2492 
Q 525 2531 444 2531 
Q 356 2531 231 2484 
L 188 2597 
L 1050 2947 
L 1188 2947 
z
" transform="scale(0.015625)"/>
        <path id="TimesNewRomanPSMT-6e" d="M 1034 2341 
Q 1538 2947 1994 2947 
Q 2228 2947 2397 2830 
Q 2566 2713 2666 2444 
Q 2734 2256 2734 1869 
L 2734 647 
Q 2734 375 2778 278 
Q 2813 200 2889 156 
Q 2966 113 3172 113 
L 3172 0 
L 1756 0 
L 1756 113 
L 1816 113 
Q 2016 113 2095 173 
Q 2175 234 2206 353 
Q 2219 400 2219 647 
L 2219 1819 
Q 2219 2209 2117 2386 
Q 2016 2563 1775 2563 
Q 1403 2563 1034 2156 
L 1034 647 
Q 1034 356 1069 288 
Q 1113 197 1189 155 
Q 1266 113 1500 113 
L 1500 0 
L 84 0 
L 84 113 
L 147 113 
Q 366 113 442 223 
Q 519 334 519 647 
L 519 1709 
Q 519 2225 495 2337 
Q 472 2450 423 2490 
Q 375 2531 294 2531 
Q 206 2531 84 2484 
L 38 2597 
L 900 2947 
L 1034 2947 
L 1034 2341 
z
" transform="scale(0.015625)"/>
        <path id="TimesNewRomanPSMT-65" d="M 681 1784 
Q 678 1147 991 784 
Q 1303 422 1725 422 
Q 2006 422 2214 576 
Q 2422 731 2563 1106 
L 2659 1044 
Q 2594 616 2278 264 
Q 1963 -88 1488 -88 
Q 972 -88 605 314 
Q 238 716 238 1394 
Q 238 2128 614 2539 
Q 991 2950 1559 2950 
Q 2041 2950 2350 2633 
Q 2659 2316 2659 1784 
L 681 1784 
z
M 681 1966 
L 2006 1966 
Q 1991 2241 1941 2353 
Q 1863 2528 1708 2628 
Q 1553 2728 1384 2728 
Q 1125 2728 920 2526 
Q 716 2325 681 1966 
z
" transform="scale(0.015625)"/>
        <path id="TimesNewRomanPSMT-20" transform="scale(0.015625)"/>
       </defs>
       <use xlink:href="#TimesNewRomanPSMT-4d"/>
       <use xlink:href="#TimesNewRomanPSMT-61" x="88.916016"/>
       <use xlink:href="#TimesNewRomanPSMT-63" x="133.300781"/>
       <use xlink:href="#TimesNewRomanPSMT-68" x="177.685547"/>
       <use xlink:href="#TimesNewRomanPSMT-69" x="227.685547"/>
       <use xlink:href="#TimesNewRomanPSMT-6e" x="255.46875"/>
       <use xlink:href="#TimesNewRomanPSMT-65" x="305.46875"/>
       <use xlink:href="#TimesNewRomanPSMT-20" x="349.853516"/>
       <use xlink:href="#TimesNewRomanPSMT-31" x="374.853516"/>
      </g>
     </g>
    </g>
    <g id="ytick_2">
     <g id="line2d_38">
      <g>
       <use xlink:href="#m11fb517dfc" x="218.14" y="855.105882" style="stroke: #000000; stroke-width: 0.8"/>
      </g>
     </g>
     <g id="text_39">
      <!-- Machine 2 -->
      <g transform="translate(7.2 871.770882) scale(0.48 -0.48)">
       <use xlink:href="#TimesNewRomanPSMT-4d"/>
       <use xlink:href="#TimesNewRomanPSMT-61" x="88.916016"/>
       <use xlink:href="#TimesNewRomanPSMT-63" x="133.300781"/>
       <use xlink:href="#TimesNewRomanPSMT-68" x="177.685547"/>
       <use xlink:href="#TimesNewRomanPSMT-69" x="227.685547"/>
       <use xlink:href="#TimesNewRomanPSMT-6e" x="255.46875"/>
       <use xlink:href="#TimesNewRomanPSMT-65" x="305.46875"/>
       <use xlink:href="#TimesNewRomanPSMT-20" x="349.853516"/>
       <use xlink:href="#TimesNewRomanPSMT-32" x="374.853516"/>
      </g>
     </g>
    </g>
    <g id="ytick_3">
     <g id="line2d_39">
      <g>
       <use xlink:href="#m11fb517dfc" x="218.14" y="724.658824" style="stroke: #000000; stroke-width: 0.8"/>
      </g>
     </g>
     <g id="text_40">
      <!-- Machine 3 -->
      <g transform="translate(7.2 741.323824) scale(0.48 -0.48)">
       <use xlink:href="#TimesNewRomanPSMT-4d"/>
       <use xlink:href="#TimesNewRomanPSMT-61" x="88.916016"/>
       <use xlink:href="#TimesNewRomanPSMT-63" x="133.300781"/>
       <use xlink:href="#TimesNewRomanPSMT-68" x="177.685547"/>
       <use xlink:href="#TimesNewRomanPSMT-69" x="227.685547"/>
       <use xlink:href="#TimesNewRomanPSMT-6e" x="255.46875"/>
       <use xlink:href="#TimesNewRomanPSMT-65" x="305.46875"/>
       <use xlink:href="#TimesNewRomanPSMT-20" x="349.853516"/>
       <use xlink:href="#TimesNewRomanPSMT-33" x="374.853516"/>
      </g>
     </g>
    </g>
    <g id="ytick_4">
     <g id="line2d_40">
      <g>
       <use xlink:href="#m11fb517dfc" x="218.14" y="594.211765" style="stroke: #000000; stroke-width: 0.8"/>
      </g>
     </g>
     <g id="text_41">
      <!-- Machine 4 -->
      <g transform="translate(7.2 610.876765) scale(0.48 -0.48)">
       <use xlink:href="#TimesNewRomanPSMT-4d"/>
       <use xlink:href="#TimesNewRomanPSMT-61" x="88.916016"/>
       <use xlink:href="#TimesNewRomanPSMT-63" x="133.300781"/>
       <use xlink:href="#TimesNewRomanPSMT-68" x="177.685547"/>
       <use xlink:href="#TimesNewRomanPSMT-69" x="227.685547"/>
       <use xlink:href="#TimesNewRomanPSMT-6e" x="255.46875"/>
       <use xlink:href="#TimesNewRomanPSMT-65" x="305.46875"/>
       <use xlink:href="#TimesNewRomanPSMT-20" x="349.853516"/>
       <use xlink:href="#TimesNewRomanPSMT-34" x="374.853516"/>
      </g>
     </g>
    </g>
    <g id="ytick_5">
     <g id="line2d_41">
      <g>
       <use xlink:href="#m11fb517dfc" x="218.14" y="463.764706" style="stroke: #000000; stroke-width: 0.8"/>
      </g>
     </g>
     <g id="text_42">
      <!-- Machine 5 -->
      <g transform="translate(7.2 480.429706) scale(0.48 -0.48)">
       <use xlink:href="#TimesNewRomanPSMT-4d"/>
       <use xlink:href="#TimesNewRomanPSMT-61" x="88.916016"/>
       <use xlink:href="#TimesNewRomanPSMT-63" x="133.300781"/>
       <use xlink:href="#TimesNewRomanPSMT-68" x="177.685547"/>
       <use xlink:href="#TimesNewRomanPSMT-69" x="227.685547"/>
       <use xlink:href="#TimesNewRomanPSMT-6e" x="255.46875"/>
       <use xlink:href="#TimesNewRomanPSMT-65" x="305.46875"/>
       <use xlink:href="#TimesNewRomanPSMT-20" x="349.853516"/>
       <use xlink:href="#TimesNewRomanPSMT-35" x="374.853516"/>
      </g>
     </g>
    </g>
    <g id="ytick_6">
     <g id="line2d_42">
      <g>
       <use xlink:href="#m11fb517dfc" x="218.14" y="333.317647" style="stroke: #000000; stroke-width: 0.8"/>
      </g>
     </g>
     <g id="text_43">
      <!-- Machine 6 -->
      <g transform="translate(7.2 349.982647) scale(0.48 -0.48)">
       <use xlink:href="#TimesNewRomanPSMT-4d"/>
       <use xlink:href="#TimesNewRomanPSMT-61" x="88.916016"/>
       <use xlink:href="#TimesNewRomanPSMT-63" x="133.300781"/>
       <use xlink:href="#TimesNewRomanPSMT-68" x="177.685547"/>
       <use xlink:href="#TimesNewRomanPSMT-69" x="227.685547"/>
       <use xlink:href="#TimesNewRomanPSMT-6e" x="255.46875"/>
       <use xlink:href="#TimesNewRomanPSMT-65" x="305.46875"/>
       <use xlink:href="#TimesNewRomanPSMT-20" x="349.853516"/>
       <use xlink:href="#TimesNewRomanPSMT-36" x="374.853516"/>
      </g>
     </g>
    </g>
   </g>
   <g id="patch_64">
    <path d="M 218.14 1116 
L 218.14 7.2 
" style="fill: none; stroke: #000000; stroke-width: 0.8; stroke-linejoin: miter; stroke-linecap: square"/>
   </g>
   <g id="patch_65">
    <path d="M 3566.14 1116 
L 3566.14 7.2 
" style="fill: none; stroke: #000000; stroke-width: 0.8; stroke-linejoin: miter; stroke-linecap: square"/>
   </g>
   <g id="patch_66">
    <path d="M 218.14 1116 
L 3566.14 1116 
" style="fill: none; stroke: #000000; stroke-width: 0.8; stroke-linejoin: miter; stroke-linecap: square"/>
   </g>
   <g id="patch_67">
    <path d="M 218.14 7.2 
L 3566.14 7.2 
" style="fill: none; stroke: #000000; stroke-width: 0.8; stroke-linejoin: miter; stroke-linecap: square"/>
   </g>
   <g id="legend_1">
    <g id="line2d_43">
     <path d="M 975.43375 67.2 
L 1047.43375 67.2 
L 1119.43375 67.2 
" style="fill: none; stroke: #f28e2c; stroke-width: 40; stroke-linecap: square"/>
    </g>
    <g id="text_44">
     <!-- Job 1 -->
     <g transform="translate(1157.83375 84) scale(0.48 -0.48)">
      <defs>
       <path id="TimesNewRomanPSMT-4a" d="M 638 4122 
L 638 4238 
L 2453 4238 
L 2453 4122 
L 2300 4122 
Q 2041 4122 1922 3969 
Q 1847 3869 1847 3488 
L 1847 1416 
Q 1847 938 1742 641 
Q 1638 344 1381 123 
Q 1125 -97 763 -97 
Q 469 -97 300 48 
Q 131 194 131 381 
Q 131 534 209 613 
Q 313 709 450 709 
Q 550 709 629 643 
Q 709 578 831 294 
Q 903 125 1016 125 
Q 1100 125 1173 228 
Q 1247 331 1247 594 
L 1247 3488 
Q 1247 3809 1206 3913 
Q 1175 3991 1075 4047 
Q 941 4122 791 4122 
L 638 4122 
z
" transform="scale(0.015625)"/>
       <path id="TimesNewRomanPSMT-6f" d="M 1600 2947 
Q 2250 2947 2644 2453 
Q 2978 2031 2978 1484 
Q 2978 1100 2793 706 
Q 2609 313 2286 112 
Q 1963 -88 1566 -88 
Q 919 -88 538 428 
Q 216 863 216 1403 
Q 216 1797 411 2186 
Q 606 2575 925 2761 
Q 1244 2947 1600 2947 
z
M 1503 2744 
Q 1338 2744 1170 2645 
Q 1003 2547 900 2300 
Q 797 2053 797 1666 
Q 797 1041 1045 587 
Q 1294 134 1700 134 
Q 2003 134 2200 384 
Q 2397 634 2397 1244 
Q 2397 2006 2069 2444 
Q 1847 2744 1503 2744 
z
" transform="scale(0.015625)"/>
       <path id="TimesNewRomanPSMT-62" d="M 984 2369 
Q 1400 2947 1881 2947 
Q 2322 2947 2650 2570 
Q 2978 2194 2978 1541 
Q 2978 778 2472 313 
Q 2038 -88 1503 -88 
Q 1253 -88 995 3 
Q 738 94 469 275 
L 469 3241 
Q 469 3728 445 3840 
Q 422 3953 372 3993 
Q 322 4034 247 4034 
Q 159 4034 28 3984 
L -16 4094 
L 844 4444 
L 984 4444 
L 984 2369 
z
M 984 2169 
L 984 456 
Q 1144 300 1314 220 
Q 1484 141 1663 141 
Q 1947 141 2192 453 
Q 2438 766 2438 1363 
Q 2438 1913 2192 2208 
Q 1947 2503 1634 2503 
Q 1469 2503 1303 2419 
Q 1178 2356 984 2169 
z
" transform="scale(0.015625)"/>
      </defs>
      <use xlink:href="#TimesNewRomanPSMT-4a"/>
      <use xlink:href="#TimesNewRomanPSMT-6f" x="38.916016"/>
      <use xlink:href="#TimesNewRomanPSMT-62" x="88.916016"/>
      <use xlink:href="#TimesNewRomanPSMT-20" x="138.916016"/>
      <use xlink:href="#TimesNewRomanPSMT-31" x="163.916016"/>
     </g>
    </g>
    <g id="line2d_44">
     <path d="M 975.43375 135.0675 
L 1047.43375 135.0675 
L 1119.43375 135.0675 
" style="fill: none; stroke: #e15759; stroke-width: 40; stroke-linecap: square"/>
    </g>
    <g id="text_45">
     <!-- Job 2 -->
     <g transform="translate(1157.83375 151.8675) scale(0.48 -0.48)">
      <use xlink:href="#TimesNewRomanPSMT-4a"/>
      <use xlink:href="#TimesNewRomanPSMT-6f" x="38.916016"/>
      <use xlink:href="#TimesNewRomanPSMT-62" x="88.916016"/>
      <use xlink:href="#TimesNewRomanPSMT-20" x="138.916016"/>
      <use xlink:href="#TimesNewRomanPSMT-32" x="163.916016"/>
     </g>
    </g>
    <g id="line2d_45">
     <path d="M 1356.51625 67.2 
L 1428.51625 67.2 
L 1500.51625 67.2 
" style="fill: none; stroke: #76b7b2; stroke-width: 40; stroke-linecap: square"/>
    </g>
    <g id="text_46">
     <!-- Job 3 -->
     <g transform="translate(1538.91625 84) scale(0.48 -0.48)">
      <use xlink:href="#TimesNewRomanPSMT-4a"/>
      <use xlink:href="#TimesNewRomanPSMT-6f" x="38.916016"/>
      <use xlink:href="#TimesNewRomanPSMT-62" x="88.916016"/>
      <use xlink:href="#TimesNewRomanPSMT-20" x="138.916016"/>
      <use xlink:href="#TimesNewRomanPSMT-33" x="163.916016"/>
     </g>
    </g>
    <g id="line2d_46">
     <path d="M 1356.51625 135.0675 
L 1428.51625 135.0675 
L 1500.51625 135.0675 
" style="fill: none; stroke: #59a14f; stroke-width: 40; stroke-linecap: square"/>
    </g>
    <g id="text_47">
     <!-- Job 4 -->
     <g transform="translate(1538.91625 151.8675) scale(0.48 -0.48)">
      <use xlink:href="#TimesNewRomanPSMT-4a"/>
      <use xlink:href="#TimesNewRomanPSMT-6f" x="38.916016"/>
      <use xlink:href="#TimesNewRomanPSMT-62" x="88.916016"/>
      <use xlink:href="#TimesNewRomanPSMT-20" x="138.916016"/>
      <use xlink:href="#TimesNewRomanPSMT-34" x="163.916016"/>
     </g>
    </g>
    <g id="line2d_47">
     <path d="M 1737.59875 67.2 
L 1809.59875 67.2 
L 1881.59875 67.2 
" style="fill: none; stroke: #edc949; stroke-width: 40; stroke-linecap: square"/>
    </g>
    <g id="text_48">
     <!-- Job 5 -->
     <g transform="translate(1919.99875 84) scale(0.48 -0.48)">
      <use xlink:href="#TimesNewRomanPSMT-4a"/>
      <use xlink:href="#TimesNewRomanPSMT-6f" x="38.916016"/>
      <use xlink:href="#TimesNewRomanPSMT-62" x="88.916016"/>
      <use xlink:href="#TimesNewRomanPSMT-20" x="138.916016"/>
      <use xlink:href="#TimesNewRomanPSMT-35" x="163.916016"/>
     </g>
    </g>
    <g id="line2d_48">
     <path d="M 1737.59875 135.0675 
L 1809.59875 135.0675 
L 1881.59875 135.0675 
" style="fill: none; stroke: #b07aa1; stroke-width: 40; stroke-linecap: square"/>
    </g>
    <g id="text_49">
     <!-- Job 6 -->
     <g transform="translate(1919.99875 151.8675) scale(0.48 -0.48)">
      <use xlink:href="#TimesNewRomanPSMT-4a"/>
      <use xlink:href="#TimesNewRomanPSMT-6f" x="38.916016"/>
      <use xlink:href="#TimesNewRomanPSMT-62" x="88.916016"/>
      <use xlink:href="#TimesNewRomanPSMT-20" x="138.916016"/>
      <use xlink:href="#TimesNewRomanPSMT-36" x="163.916016"/>
     </g>
    </g>
    <g id="line2d_49">
     <path d="M 2118.68125 67.2 
L 2190.68125 67.2 
L 2262.68125 67.2 
" style="fill: none; stroke: #ff9da7; stroke-width: 40; stroke-linecap: square"/>
    </g>
    <g id="text_50">
     <!-- Job 7 -->
     <g transform="translate(2301.08125 84) scale(0.48 -0.48)">
      <use xlink:href="#TimesNewRomanPSMT-4a"/>
      <use xlink:href="#TimesNewRomanPSMT-6f" x="38.916016"/>
      <use xlink:href="#TimesNewRomanPSMT-62" x="88.916016"/>
      <use xlink:href="#TimesNewRomanPSMT-20" x="138.916016"/>
      <use xlink:href="#TimesNewRomanPSMT-37" x="163.916016"/>
     </g>
    </g>
    <g id="line2d_50">
     <path d="M 2118.68125 135.0675 
L 2190.68125 135.0675 
L 2262.68125 135.0675 
" style="fill: none; stroke: #9c755f; stroke-width: 40; stroke-linecap: square"/>
    </g>
    <g id="text_51">
     <!-- Job 8 -->
     <g transform="translate(2301.08125 151.8675) scale(0.48 -0.48)">
      <use xlink:href="#TimesNewRomanPSMT-4a"/>
      <use xlink:href="#TimesNewRomanPSMT-6f" x="38.916016"/>
      <use xlink:href="#TimesNewRomanPSMT-62" x="88.916016"/>
      <use xlink:href="#TimesNewRomanPSMT-20" x="138.916016"/>
      <use xlink:href="#TimesNewRomanPSMT-38" x="163.916016"/>
     </g>
    </g>
    <g id="line2d_51">
     <path d="M 2499.76375 67.2 
L 2571.76375 67.2 
L 2643.76375 67.2 
" style="fill: none; stroke: #bab0ac; stroke-width: 40; stroke-linecap: square"/>
    </g>
    <g id="text_52">
     <!-- Job 9 -->
     <g transform="translate(2682.16375 84) scale(0.48 -0.48)">
      <defs>
       <path id="TimesNewRomanPSMT-39" d="M 338 -88 
L 338 28 
Q 744 34 1094 217 
Q 1444 400 1770 856 
Q 2097 1313 2225 1859 
Q 1734 1544 1338 1544 
Q 891 1544 572 1889 
Q 253 2234 253 2806 
Q 253 3363 572 3797 
Q 956 4325 1575 4325 
Q 2097 4325 2469 3894 
Q 2925 3359 2925 2575 
Q 2925 1869 2578 1258 
Q 2231 647 1613 244 
Q 1109 -88 516 -88 
L 338 -88 
z
M 2275 2091 
Q 2331 2497 2331 2741 
Q 2331 3044 2228 3395 
Q 2125 3747 1936 3934 
Q 1747 4122 1506 4122 
Q 1228 4122 1018 3872 
Q 809 3622 809 3128 
Q 809 2469 1088 2097 
Q 1291 1828 1588 1828 
Q 1731 1828 1928 1897 
Q 2125 1966 2275 2091 
z
" transform="scale(0.015625)"/>
      </defs>
      <use xlink:href="#TimesNewRomanPSMT-4a"/>
      <use xlink:href="#TimesNewRomanPSMT-6f" x="38.916016"/>
      <use xlink:href="#TimesNewRomanPSMT-62" x="88.916016"/>
      <use xlink:href="#TimesNewRomanPSMT-20" x="138.916016"/>
      <use xlink:href="#TimesNewRomanPSMT-39" x="163.916016"/>
     </g>
    </g>
    <g id="line2d_52">
     <path d="M 2499.76375 135.0675 
L 2571.76375 135.0675 
L 2643.76375 135.0675 
" style="fill: none; stroke: #ffdcb8; stroke-width: 40; stroke-linecap: square"/>
    </g>
    <g id="text_53">
     <!-- Job 10 -->
     <g transform="translate(2682.16375 151.8675) scale(0.48 -0.48)">
      <use xlink:href="#TimesNewRomanPSMT-4a"/>
      <use xlink:href="#TimesNewRomanPSMT-6f" x="38.916016"/>
      <use xlink:href="#TimesNewRomanPSMT-62" x="88.916016"/>
      <use xlink:href="#TimesNewRomanPSMT-20" x="138.916016"/>
      <use xlink:href="#TimesNewRomanPSMT-31" x="163.916016"/>
      <use xlink:href="#TimesNewRomanPSMT-30" x="213.916016"/>
     </g>
    </g>
   </g>
  </g>
 </g>
 <defs>
  <clipPath id="p9b86c049be">
   <rect x="218.14" y="7.2" width="3348" height="1108.8"/>
  </clipPath>
 </defs>
</svg>
